<svg xmlns="http://www.w3.org/2000/svg" width="1600" height="530" viewBox="0 0 1600 530">
  <defs>
    <style>
      .cls-1 {
        fill: #fff;
        fill-rule: evenodd;
      }
    </style>
  </defs>
  <path id="b-top_service_bg_02.svg" class="cls-1" d="M656,2608H2255.99v529.99H656V2608Zm1425.62,429.56a39.051,39.051,0,0,0,21.97-6.38q9.675-6.375,15.23-18.52,5.535-12.15,5.55-28.8t-5.55-28.8q-5.565-12.15-15.23-18.53a41.348,41.348,0,0,0-44.1,0q-9.675,6.375-15.22,18.53-5.565,12.15-5.55,28.8,0,16.65,5.55,28.8t15.22,18.52a39.3,39.3,0,0,0,22.13,6.38h0Zm0-13.35a23.922,23.922,0,0,1-20.33-10.35q-7.575-10.35-7.57-30t7.57-30a23.922,23.922,0,0,1,20.33-10.35q12.6,0,20.17,10.35t7.58,30q0,19.65-7.58,30t-20.17,10.35h0Zm75.59-.9,32.1-30.9q10.05-9.6,13.65-17.1a36.283,36.283,0,0,0,3.6-15.9q0-13.5-9.75-21.38t-26.25-7.87a56.847,56.847,0,0,0-22.27,4.2,40.957,40.957,0,0,0-16.13,11.7l10.2,8.85q9.45-11.4,26.85-11.4,10.8,0,16.58,4.57t5.77,12.83a24.693,24.693,0,0,1-2.7,11.02q-2.7,5.475-10.5,12.98l-42.75,41.25v10.2h75.45v-13.05h-53.85Z" transform="translate(-656 -2608)"/>
</svg>
