<svg xmlns="http://www.w3.org/2000/svg" width="1600" height="530" viewBox="0 0 1600 530">
  <defs>
    <style>
      .cls-1 {
        fill: #fff;
        fill-rule: evenodd;
      }
    </style>
  </defs>
  <path id="b-top_service_bg_03.svg" class="cls-1" d="M656,2608H2255.99v529.99H656V2608Zm1425.62,429.56a39.051,39.051,0,0,0,21.97-6.38q9.675-6.375,15.23-18.52,5.535-12.15,5.55-28.8t-5.55-28.8q-5.565-12.15-15.23-18.53a41.348,41.348,0,0,0-44.1,0q-9.675,6.375-15.22,18.53-5.565,12.15-5.55,28.8,0,16.65,5.55,28.8t15.22,18.52a39.3,39.3,0,0,0,22.13,6.38h0Zm0-13.35a23.922,23.922,0,0,1-20.33-10.35q-7.575-10.35-7.57-30t7.57-30a23.922,23.922,0,0,1,20.33-10.35q12.6,0,20.17,10.35t7.58,30q0,19.65-7.58,30t-20.17,10.35h0Zm95.84-48.75,27.45-33.9v-10.2h-69.3v13.05h50.55l-26.4,32.4v10.5h8.4q13.05,0,19.5,4.8t6.45,13.5q0,8.7-6.52,13.65t-18.23,4.95a51.518,51.518,0,0,1-17.85-3.08,39.634,39.634,0,0,1-13.8-8.17l-6.9,11.85a46.008,46.008,0,0,0,16.95,9.37,69.233,69.233,0,0,0,21.6,3.38q12.9,0,21.83-4.28a30.975,30.975,0,0,0,13.42-11.55,30.3,30.3,0,0,0,4.5-16.27q0-12.45-8.1-20.48t-23.55-9.52h0Z" transform="translate(-656 -2608)"/>
</svg>
