<svg xmlns="http://www.w3.org/2000/svg" width="1600" height="530" viewBox="0 0 1600 530">
  <defs>
    <style>
      .cls-1 {
        fill: #fff;
        fill-rule: evenodd;
        opacity: 0.5;
      }
    </style>
  </defs>
  <path id="b-top_service_bg_01.svg" class="cls-1" d="M656,2608H2255.99v529.99H656V2608Zm1425.59,429.26a38.82,38.82,0,0,0,21.93-6.38q9.66-6.36,15.2-18.52t5.54-28.8q0-16.65-5.54-28.8t-15.2-18.53a41.192,41.192,0,0,0-44.01,0q-9.645,6.39-15.19,18.53t-5.54,28.8q0,16.65,5.54,28.8t15.19,18.52a39.1,39.1,0,0,0,22.08,6.38h0Zm0-13.35a23.859,23.859,0,0,1-20.28-10.35q-7.56-10.35-7.56-30t7.56-30a23.859,23.859,0,0,1,20.28-10.35q12.585,0,20.14,10.35t7.56,30q0,19.65-7.56,30t-20.14,10.35h0Zm54.04-92.85v13.05h23.65v91.95h14.82v-105h-38.47Z" transform="translate(-656 -2608)"/>
</svg>
