<svg xmlns="http://www.w3.org/2000/svg" viewBox="0 0 80.01 48.02"><defs><style>.cls-1{fill:#fff;fill-rule:evenodd;}</style></defs><g id="レイヤー_2" data-name="レイヤー 2"><g id="レイヤー_1-2" data-name="レイヤー 1"><path id="c-head_logo" data-name="c-head logo" class="cls-1" d="M17,16.49,33.93,0l3.73,3.71L25.13,15.91a.36.36,0,0,0-.09.22.31.31,0,0,0,.09.21l8.42,8.36a.31.31,0,0,0,.22.09A.27.27,0,0,0,34,24.7L44.75,14l3.74,3.71-15.18,15Zm46-.26L46.08,32.73,42.34,29l12.54-12.2A.27.27,0,0,0,55,16.6a.31.31,0,0,0-.09-.22L46.45,8a.27.27,0,0,0-.21-.09A.31.31,0,0,0,46,8L35.25,18.68,31.51,15,46.69,0ZM80,46.84a.86.86,0,0,1-.87.88.88.88,0,1,1,.87-.88Zm-50.2-6.12a3.54,3.54,0,1,0,3.7,3.54A3.63,3.63,0,0,0,29.81,40.72Zm0,5.8a2.27,2.27,0,1,1,2.42-2.26,2.35,2.35,0,0,1-2.42,2.26Zm17.83-5.8H44.85V47.8h2.79a3.55,3.55,0,0,0,.59-7.08Zm0,5.8H46.18V42h1.46a2.27,2.27,0,1,1,.43,4.51Zm-26.71,0a2.26,2.26,0,0,1-.3-4.52h.3a2.43,2.43,0,0,1,2.12,1.17l1.1-.65a3.74,3.74,0,0,0-3.22-1.8,3.54,3.54,0,1,0-.33,7.07h.33A3.71,3.71,0,0,0,24.15,46l-1.1-.64a2.46,2.46,0,0,1-2.12,1.17Zm52.87,0A2.26,2.26,0,0,1,73.5,42h.3a2.43,2.43,0,0,1,2.12,1.17l1.1-.65a3.74,3.74,0,0,0-3.22-1.8,3.54,3.54,0,1,0-.33,7.07h.33A3.71,3.71,0,0,0,77,46l-1.1-.64a2.46,2.46,0,0,1-2.12,1.17ZM8.71,47.78h6V46.56H10V44.68h3.37V43.46H10V41.94h4.71V40.72h-6v7.06Zm28.45,0V42.11l3.08,5.68h2V40.72H40.94V46.4l-3.08-5.68h-2v7.07Zm26.46,0V42.11l3.08,5.68h2V40.72H67.4V46.4l-3.08-5.68h-2v7.07Zm-4-7.06H58.25v7.06h1.33V42.11h0V40.73ZM3.16,43.58H2.53a1.34,1.34,0,0,1-1.08-.4.82.82,0,0,1-.14-.66,1.35,1.35,0,0,1,1.47-.8,3,3,0,0,1,2,.87l.83-1a4.16,4.16,0,0,0-2.79-1.18A2.57,2.57,0,0,0,.06,42.18,2.1,2.1,0,0,0,.43,44a2.47,2.47,0,0,0,2.1.9h.63a1.36,1.36,0,0,1,1.08.4.76.76,0,0,1,.14.67,1.34,1.34,0,0,1-1.46.8,3,3,0,0,1-2-.88l-.84,1A4.32,4.32,0,0,0,2.92,48a2.56,2.56,0,0,0,2.71-1.75,2.07,2.07,0,0,0-.37-1.78,2.48,2.48,0,0,0-2.1-.9Z"/></g></g></svg>