<svg xmlns="http://www.w3.org/2000/svg" viewBox="0 0 229.29 138.38"><defs><style>.cls-1{fill:#3972b7;}</style></defs><g id="レイヤー_2" data-name="レイヤー 2"><g id="レイヤー_1-2" data-name="レイヤー 1"><path d="M48.68,47.54,97.24,0l10.7,10.7L72,45.87a.87.87,0,0,0,0,1.24L96.17,71.2a.85.85,0,0,0,.61.25.89.89,0,0,0,.62-.25l30.86-30.72L139,51.18,95.47,94.34Z"/><path class="cls-1" d="M180.61,46.8,132.05,94.35l-10.7-10.71,35.91-35.16a.88.88,0,0,0,.27-.62.85.85,0,0,0-.26-.62L133.12,23.15a.87.87,0,0,0-.61-.26.89.89,0,0,0-.62.26L101,53.86,90.32,43.17,133.81,0Z"/><path d="M229.29,135a2.51,2.51,0,1,1-2.51-2.5A2.51,2.51,0,0,1,229.29,135Z"/><path d="M85.44,117.39A10.2,10.2,0,1,0,96,127.58,10.41,10.41,0,0,0,85.44,117.39Zm0,16.71a6.53,6.53,0,1,1,6.93-6.52A6.74,6.74,0,0,1,85.44,134.1Z"/><path d="M136.53,117.39h-8v20.42h8c6,0,10.93-4.58,10.93-10.21S142.55,117.39,136.53,117.39Zm0,16.72h-4.2v-13h4.2c3.92,0,7.12,2.91,7.12,6.5S140.45,134.11,136.53,134.11Z"/><path d="M60,134.1a6.53,6.53,0,1,1,0-13,7,7,0,0,1,6.07,3.37l3.16-1.85A10.69,10.69,0,0,0,60,117.39a10.2,10.2,0,1,0,0,20.38,10.69,10.69,0,0,0,9.23-5.18l-3.16-1.86A7,7,0,0,1,60,134.1Z"/><path d="M211.5,134.1a6.53,6.53,0,1,1,0-13,7,7,0,0,1,6.07,3.37l3.16-1.85a10.68,10.68,0,0,0-9.23-5.19,10.2,10.2,0,1,0,0,20.38,10.69,10.69,0,0,0,9.23-5.18l-3.16-1.86A7,7,0,0,1,211.5,134.1Z"/><polygon points="24.97 137.74 42.17 137.74 42.17 134.21 28.78 134.21 28.78 128.82 38.44 128.82 38.44 125.29 28.78 125.29 28.78 120.92 42.27 120.92 42.27 117.39 24.97 117.39 24.97 137.74"/><polygon points="106.49 137.77 106.49 121.4 115.32 137.77 121.13 137.77 121.13 117.39 117.32 117.39 117.32 133.78 108.49 117.41 102.68 117.41 102.68 137.77 106.49 137.77"/><polygon points="182.34 137.77 182.34 121.4 191.16 137.77 196.97 137.77 196.97 117.39 193.16 117.39 193.16 133.78 184.34 117.41 178.53 117.41 178.53 137.77 182.34 137.77"/><polygon points="170.76 117.41 166.94 117.41 166.94 137.77 170.75 137.77 170.75 121.4 170.76 121.42 170.76 117.41"/><path d="M9.06,125.63H7.27a3.87,3.87,0,0,1-3.1-1.14,2.28,2.28,0,0,1-.41-1.92c.39-1.43,2-2.29,4.2-2.29,2.45,0,4.12,1.24,5.62,2.52L16,120a12.19,12.19,0,0,0-8-3.4c-4.73,0-7.12,2.6-7.77,5a6.06,6.06,0,0,0,1,5.13c.91,1.18,2.69,2.59,6,2.59H9.06a3.84,3.84,0,0,1,3.1,1.14,2.3,2.3,0,0,1,.41,1.91c-.39,1.44-2,2.3-4.21,2.3-2.44,0-4.11-1.25-5.61-2.52L.35,135a12.24,12.24,0,0,0,8,3.4c4.74,0,7.12-2.6,7.78-5a6,6,0,0,0-1-5.12C14.19,127,12.41,125.63,9.06,125.63Z"/></g></g></svg>